<?xml version="1.0" standalone="no"?>
<!DOCTYPE svg PUBLIC "-//W3C//DTD SVG 20010904//EN"
 "http://www.w3.org/TR/2001/REC-SVG-20010904/DTD/svg10.dtd">
<svg version="1.0" xmlns="http://www.w3.org/2000/svg"
 width="227.000000pt" height="191.000000pt" viewBox="0 0 227.000000 191.000000"
 preserveAspectRatio="xMidYMid meet">

<g transform="translate(0.000000,191.000000) scale(0.100000,-0.100000)"
fill="#000000" stroke="none">
<path d="M993 1786 c-183 -35 -302 -97 -437 -225 -168 -161 -256 -369 -256
-606 0 -237 88 -445 256 -606 114 -109 203 -161 351 -205 77 -24 106 -27 233
-28 111 0 160 4 210 18 75 20 220 86 264 119 54 40 60 42 46 17 l-12 -23 30
22 c53 38 162 163 211 243 27 43 64 122 82 176 33 95 34 100 34 267 0 167 -1
172 -34 267 -40 117 -107 229 -191 320 -70 77 -128 124 -117 94 8 -19 0 -16
-49 21 -44 33 -189 99 -259 118 -83 22 -272 28 -362 11z m538 -437 c77 -38
137 -132 158 -245 16 -87 16 -89 -38 -116 l-48 -24 -7 86 c-10 144 -52 256
-110 294 -32 21 -90 21 -122 0 -54 -36 -98 -155 -106 -283 -3 -55 -3 -55 37
-78 22 -13 39 -28 37 -34 -1 -6 2 -8 7 -4 6 3 29 -4 52 -15 28 -15 52 -20 73
-16 23 4 48 -3 96 -27 61 -30 65 -34 68 -70 3 -29 9 -40 33 -52 21 -11 29 -23
30 -43 0 -15 2 -34 4 -43 5 -29 -131 -32 -455 -9 -162 11 -313 22 -335 25 -40
6 -40 6 -37 45 4 38 6 40 56 54 28 9 110 28 181 42 72 15 134 30 138 34 4 4
-17 13 -48 20 -43 10 -63 11 -95 1 -39 -11 -107 -3 -151 20 -12 6 -64 -20
-188 -95 -94 -57 -168 -106 -164 -110 3 -3 -4 -6 -18 -6 l-23 0 24 17 c14 9
27 18 29 19 2 2 -4 19 -13 38 -26 54 -21 103 13 137 31 30 59 36 92 19 19 -11
27 -40 10 -40 -14 0 -33 -55 -29 -84 3 -27 3 -26 128 50 69 42 134 78 145 79
12 1 19 8 19 18 -1 9 -2 24 -3 32 -2 27 -72 94 -116 111 -31 12 -65 15 -119
12 -42 -2 -76 -1 -76 2 0 3 12 60 27 127 l28 121 160 4 c88 2 162 3 164 1 11
-8 -16 -57 -40 -75 -40 -30 -101 -40 -177 -28 -37 6 -74 13 -83 16 -13 3 -20
-9 -33 -60 -9 -36 -16 -67 -16 -69 0 -3 46 -7 103 -9 120 -5 189 -30 238 -86
28 -31 33 -33 56 -23 14 6 34 9 44 6 16 -5 19 -1 19 22 0 40 23 121 48 169 67
131 211 184 333 123z m-108 -242 c3 12 5 9 6 -9 0 -16 -2 -28 -6 -28 -11 0
-43 32 -43 43 0 6 9 2 19 -7 18 -17 19 -17 24 1z m105 -10 c6 -5 12 -14 12
-20 0 -6 -8 -4 -17 5 -15 16 -17 16 -29 0 -12 -15 -13 -14 -14 10 0 22 4 26
18 21 9 -3 23 -10 30 -16z m-169 -6 c14 -25 1 -35 -15 -13 -16 20 -17 32 -4
32 5 0 14 -8 19 -19z m97 -6 c1 -14 -2 -22 -7 -19 -11 6 -12 44 -1 44 4 0 8
-11 8 -25z m-775 -405 c10 -6 19 -18 19 -27 0 -14 -4 -13 -23 5 -39 37 -77 23
-77 -29 0 -40 26 -62 64 -55 23 5 28 4 19 -5 -21 -21 -74 -15 -95 10 -25 31
-23 57 7 86 26 27 54 31 86 15z m49 -56 c0 -31 3 -36 20 -31 11 3 20 1 20 -4
0 -5 -13 -9 -30 -9 -28 0 -30 2 -30 40 0 22 5 40 10 40 6 0 10 -16 10 -36z
m75 -4 c1 -22 -4 -40 -10 -40 -5 0 -10 18 -10 40 0 22 5 40 10 40 6 0 10 -18
10 -40z m68 13 l30 -28 -5 28 c-3 15 -1 27 3 27 5 0 9 -16 9 -35 0 -42 -5 -43
-43 -7 l-29 27 4 -32 c3 -18 1 -33 -3 -33 -4 0 -9 18 -11 40 -4 47 5 50 45 13z
m79 -13 c2 -26 -1 -40 -8 -40 -7 0 -14 18 -16 40 -2 26 1 40 8 40 7 0 14 -18
16 -40z m43 8 c0 -28 4 -33 23 -32 14 0 19 -3 13 -9 -5 -5 -21 -7 -35 -3 -19
4 -26 13 -26 29 0 17 16 47 25 47 0 0 0 -15 0 -32z m50 22 c3 -5 2 -10 -4 -10
-5 0 -13 5 -16 10 -3 6 -2 10 4 10 5 0 13 -4 16 -10z m78 -55 l35 -65 -24 0
c-17 0 -24 6 -24 20 0 16 -7 20 -31 20 -26 0 -31 -3 -26 -20 4 -15 0 -20 -14
-20 -17 0 -16 6 13 65 18 36 33 65 34 65 2 0 18 -29 37 -65z m47 30 c0 -8 5
-15 11 -15 6 0 9 7 5 15 -3 9 0 15 10 15 12 0 15 -6 10 -24 -3 -14 -2 -28 4
-31 5 -3 10 -11 10 -17 0 -6 -11 -1 -25 12 l-25 23 0 -21 c0 -12 -4 -22 -10
-22 -5 0 -10 18 -10 40 0 22 5 40 10 40 6 0 10 -7 10 -15z m90 0 c0 -8 8 -16
18 -16 16 -1 16 -2 0 -6 -10 -2 -18 -11 -18 -20 0 -9 6 -13 15 -9 8 3 15 1 15
-4 0 -6 -11 -10 -24 -10 -21 0 -24 6 -28 40 -2 28 0 40 9 40 7 0 13 -7 13 -15z
m73 8 c-18 -7 -16 -38 2 -53 32 -26 63 18 33 48 -9 9 -9 12 0 12 22 0 32 -35
17 -58 -12 -16 -12 -21 -2 -25 7 -3 6 -6 -5 -6 -30 -2 -66 18 -73 39 -7 22 10
51 29 49 7 0 6 -2 -1 -6z m99 -25 c2 -25 8 -33 23 -33 15 0 22 9 27 35 l6 35
-1 -34 c-3 -66 -69 -68 -75 -2 -2 17 1 31 7 31 5 0 11 -15 13 -32z m103 -8 c0
-22 -5 -40 -10 -40 -6 0 -11 18 -10 40 0 22 5 40 10 40 6 0 10 -18 10 -40z
m45 0 c0 -22 -4 -40 -9 -40 -5 0 -11 18 -13 40 -2 28 0 40 9 40 8 0 13 -14 13
-40z m40 20 c0 -11 -6 -20 -13 -20 -7 0 -13 9 -13 20 0 11 6 20 13 20 7 0 13
-9 13 -20z m60 -20 c17 -34 18 -40 5 -40 -8 0 -15 7 -15 15 0 8 -9 15 -20 15
-11 0 -20 2 -20 5 0 6 24 45 27 45 2 0 12 -18 23 -40z"/>
<path d="M1084 1014 c-19 -15 -19 -15 1 -6 11 5 27 12 35 15 13 5 13 6 -1 6
-8 1 -24 -6 -35 -15z"/>
<path d="M1182 1020 c14 -4 32 -11 40 -15 7 -3 4 1 -6 9 -11 9 -29 16 -40 15
-17 -1 -16 -2 6 -9z"/>
<path d="M1240 995 c0 -2 18 -14 40 -25 22 -11 40 -18 40 -15 0 2 -18 14 -40
25 -22 11 -40 18 -40 15z"/>
<path d="M1382 914 c10 -10 20 -15 24 -12 3 4 -5 12 -18 18 -22 12 -22 12 -6
-6z"/>
<path d="M1308 883 c7 -3 16 -2 19 1 4 3 -2 6 -13 5 -11 0 -14 -3 -6 -6z"/>
<path d="M1410 806 c0 -8 4 -17 9 -20 5 -4 7 3 4 14 -6 23 -13 26 -13 6z"/>
<path d="M1070 605 c0 -8 7 -15 15 -15 9 0 12 6 9 15 -4 8 -10 15 -15 15 -5 0
-9 -7 -9 -15z"/>
</g>
</svg>
